<svg xmlns="http://www.w3.org/2000/svg" width="66" height="66" viewBox="0 0 24 24" class="duoicon duoicon-campground" style="color: rgb(42, 111, 43);"><path fill="currentColor" d="M13.176 3.434a1 1 0 1 1 1.648 1.133l-1.61 2.342L21.526 19H22a1 1 0 1 1 0 2h-4.634l-.044-.07-4.492-6.487a1.01 1.01 0 0 0-1.66 0L6.678 20.93l-.044.07H2a1 1 0 1 1 0-2h.474l8.313-12.092-1.611-2.342a1 1 0 0 1 1.648-1.133L12 5.144l1.176-1.71Z" class="duoicon-secondary-layer" opacity=".3"></path><path fill="currentColor" d="M12 16.757 14.938 21H9.062L12 16.757Z" class="duoicon-primary-layer"></path></svg>